<?xml version="1.0" encoding="UTF-8" standalone="no"?>
<!-- Created with Inkscape (http://www.inkscape.org/) -->

<svg
   width="210mm"
   height="297mm"
   viewBox="0 0 210 297"
   version="1.1"
   id="svg3285"
   inkscape:version="1.2 (dc2aedaf03, 2022-05-15)"
   sodipodi:docname="PlywoodCNCcarriage.svg"
   xmlns:inkscape="http://www.inkscape.org/namespaces/inkscape"
   xmlns:sodipodi="http://sodipodi.sourceforge.net/DTD/sodipodi-0.dtd"
   xmlns="http://www.w3.org/2000/svg"
   xmlns:svg="http://www.w3.org/2000/svg">
  <sodipodi:namedview
     id="namedview3287"
     pagecolor="#ffffff"
     bordercolor="#000000"
     borderopacity="0.25"
     inkscape:showpageshadow="2"
     inkscape:pageopacity="0.0"
     inkscape:pagecheckerboard="0"
     inkscape:deskcolor="#d1d1d1"
     inkscape:document-units="mm"
     showgrid="true"
     showguides="false"
     inkscape:zoom="1.54"
     inkscape:cx="187.33766"
     inkscape:cy="225.32468"
     inkscape:window-width="1680"
     inkscape:window-height="987"
     inkscape:window-x="-8"
     inkscape:window-y="-8"
     inkscape:window-maximized="1"
     inkscape:current-layer="layer1">
    <inkscape:grid
       type="xygrid"
       id="grid3652"
       units="mm"
       spacingx="1"
       spacingy="1"
       empspacing="10" />
  </sodipodi:namedview>
  <defs
     id="defs3282" />
  <g
     inkscape:label="Layer 1"
     inkscape:groupmode="layer"
     id="layer1">
    <rect
       style="fill:none;stroke:#ff0000;stroke-width:0.265538"
       id="rect5884"
       width="89.734459"
       height="119.73446"
       x="0.00047740538"
       y="0.1339061"
       ry="35.907742" />
    <path
       id="path6470"
       style="fill:none;stroke:#ff0000;stroke-width:0.268815"
       d="M 44.973482 41.048657 A 35.365593 35.365593 0 0 0 31.690572 43.640747 C 31.846166 44.576393 31.416225 45.546747 30.539221 46.039567 L 24.993823 49.155656 C 24.201986 49.600618 23.26699 49.532169 22.563997 49.059021 A 35.365593 35.365593 0 0 0 9.6076823 76.414457 A 35.365593 35.365593 0 0 0 44.973482 111.77974 A 35.365593 35.365593 0 0 0 80.339282 76.414457 A 35.365593 35.365593 0 0 0 44.973482 41.048657 z " />
    <circle
       style="fill:none;stroke:#ff0000;stroke-width:0.264583"
       id="path10828"
       cx="25.854925"
       cy="13.252703"
       r="7.5" />
    <circle
       style="fill:none;stroke:#ff0000;stroke-width:0.264583"
       id="path10828-3"
       cx="64.155289"
       cy="13.160583"
       r="7.5" />
    <circle
       style="fill:none;stroke:#ff0000;stroke-width:0.173331"
       id="path10828-3-7"
       cx="45"
       cy="13.19737"
       r="4.9133344" />
  </g>
</svg>
